<?xml version="1.0" encoding="UTF-8"?><svg id="a" xmlns="http://www.w3.org/2000/svg" width="240" height="240" viewBox="0 0 240 240"><defs><style>.c{fill:#fff;}.d{fill:#2e3192;}.e{fill:#ed1c24;}</style></defs><g><circle class="d" cx="120" cy="120" r="107.5"/><path class="c" d="M120,25c52.38318,0,95,42.61682,95,95s-42.61682,95-95,95S25,172.38318,25,120,67.61682,25,120,25m0-25C53.72582,0,0,53.72582,0,120s53.72582,120,120,120,120-53.72581,120-120S186.27419,0,120,0h0Z"/></g><path class="d" d="M120,5c30.71762,0,59.59662,11.96208,81.31729,33.68271,21.72063,21.72066,33.68271,50.59966,33.68271,81.31729s-11.96208,59.59662-33.68271,81.31729c-21.72067,21.72063-50.59967,33.68271-81.31729,33.68271s-59.59663-11.96208-81.31729-33.68271C16.96208,179.59662,5,150.71762,5,120S16.96208,60.40337,38.68271,38.68271C60.40337,16.96208,89.28237,5,120,5m0-5C53.72583,0,0,53.72583,0,120s53.72583,120,120,120,120-53.72583,120-120S186.27417,0,120,0h0Z"/><g id="b"><path class="c" d="M51.36111,120c13.70798,23.6871,39.30281,39.6351,68.63889,39.6351s54.93091-15.948,68.63889-39.6351c-13.70798-23.6871-39.30281-39.6351-68.63889-39.6351s-54.93091,15.948-68.63889,39.6351Z"/><circle class="d" cx="120" cy="120" r="26.15917"/></g><path class="e" d="M195.54956,26.77271L26.77271,195.54956c5.26385,6.48749,11.19025,12.41388,17.67773,17.67773L213.22729,44.45044c-5.26385-6.48749-11.19025-12.41388-17.67773-17.67773Z"/></svg>