<?xml version="1.0" encoding="UTF-8"?><svg id="a" xmlns="http://www.w3.org/2000/svg" width="547.52777" height="240" viewBox="0 0 547.52777 240"><defs><style>.f{fill:#fff;}.g{fill:#1d428a;}.h{fill:#ee2737;}</style></defs><g id="b"><g id="c"><g><path class="f" d="M277.30817,55.32519c-7.58301,0-13.40329,2.84323-17.46091,8.53031-4.05762,5.687-6.08691,14.60347-6.08691,26.74654v61.22316c0,12.20407,1.95508,21.20799,5.86523,27.01369,3.90915,5.80562,9.74417,8.70799,17.50485,8.70799,7.04883,0,12.44043-2.41307,16.17285-7.24222,3.73145-4.82709,5.56738-11.47655,5.50885-19.94824v-20.70407h-12.08502l-.08887,20.97069c.05865,5.21292-.6084,9.22655-1.99908,12.04008-1.39252,2.81445-3.86523,4.22069-7.4198,4.22069s-6.25104-1.68846-8.086-5.06546c-1.83698-3.37593-2.75488-9.29884-2.75488-17.77147V88.2915c0-7.4043,.88873-12.958,2.66602-16.66061,1.7774-3.70169,4.50098-5.55377,8.17487-5.55377,3.25775,0,5.61218,1.39262,7.06433,4.17631,1.45123,2.78516,2.17682,6.30908,2.17682,10.57423v22.48092h12.2627v-22.48092c0-8.05569-1.85254-14.32031-5.55371-18.79393-3.70319-4.47169-8.99023-6.70854-15.86133-6.70854h0Z"/><path class="f" d="M328.93512,100.73195c-5.86523,0-10.38281,1.62985-13.5517,4.88721-3.16901,3.25878-4.72467,7.76121-4.6651,13.50636v7.55322h11.64062v-8.35307c0-2.42822,.53326-4.38329,1.59961-5.86421,1.06641-1.4805,2.66595-2.22172,4.79883-2.22172,2.1319,0,3.65625,.90385,4.57617,2.71,.91699,1.80807,1.37695,4.36958,1.37695,7.6865v15.19485h-6.84186c-6.57611,0-11.56732,2.01465-14.9726,6.04193-3.40723,4.02936-5.10938,10.6055-5.10938,19.72658,0,8.82814,1.2724,15.27049,3.82031,19.32713,2.54688,4.05864,6.16113,6.08693,10.84082,6.08693,3.25781,0,5.93854-.78613,8.04199-2.35449,2.10156-1.56929,3.7168-3.45015,4.84277-5.64258,.11816,1.30371,.33984,2.60744,.66602,3.90921,.32526,1.30373,.78516,2.37007,1.37793,3.19922h11.28516v-1.42186c-.65326-1.65729-1.1416-3.65729-1.4668-5.99806-.32623-2.33887-.48828-5.07814-.48828-8.2188v-49.04978c0-7.46486-1.57025-12.78078-4.71002-15.95065-3.14056-3.1685-7.49414-4.75392-13.06146-4.75392h0Zm-2.39941,77.21822c-2.01465,0-3.65826-.93358-4.93164-2.7988-1.27435-1.86621-1.91119-6.26463-1.91119-13.19627,0-6.81151,.81451-11.37308,2.4444-13.68358,1.62793-2.31056,3.89453-3.46585,6.79785-3.46585h5.77539v22.65921c0,3.14056-.83002,5.67279-2.48828,7.59764-1.65918,1.92578-3.55371,2.88765-5.68652,2.88765h0Z"/><path class="f" d="M411.21832,100.90969c-3.25879,0-6.16107,.83007-8.70801,2.48779-2.54785,1.65914-4.47363,3.73243-5.77539,6.22021h-.08887c-1.00781-2.72414-2.54785-4.85643-4.62109-6.398-2.07422-1.5395-4.5625-2.31-7.46387-2.31-2.96289,0-5.6582,.69678-8.08594,2.08786-2.42975,1.39257-4.38477,3.36279-5.86523,5.90921l.08887-6.75293h-11.64062v83.97114h11.72949V117.61526c.71094-1.836,1.79102-3.39065,3.24316-4.66557,1.45117-1.27293,3.18359-1.91014,5.19824-1.91014,1.83594,0,3.39069,.63721,4.66504,1.91014,1.27338,1.27493,1.91113,3.896,1.91113,7.86429v65.31099h12.08496V117.61526c.47266-1.95507,1.43555-3.53957,2.8877-4.75443,1.4502-1.21336,3.18359-1.82128,5.19824-1.82128,1.89453,0,3.47949,.63721,4.75385,1.91014,1.27356,1.27493,1.91022,3.896,1.91022,7.86429v65.31099h11.90723V117.70362c0-5.6865-1.21484-9.90771-3.64355-12.66215-2.42969-2.75436-5.65723-4.13178-9.68555-4.13178h0Z"/><polygon class="f" points="450.13825 56.74656 437.87555 56.74656 437.87555 186.12501 474.2193 186.12501 474.2193 174.92871 450.13825 174.92871 450.13825 56.74656 450.13825 56.74656"/><path class="f" d="M488.61481,65.01072c-2.37006,0-4.20703,.74123-5.50977,2.22123-1.30371,1.48146-1.95508,3.34762-1.95508,5.59815,0,2.25192,.60748,4.14746,1.82233,5.687,1.21283,1.541,3.09467,2.31053,5.64252,2.31053,2.42773,0,4.30951-.76953,5.64264-2.31053,1.33295-1.53954,1.99896-3.46531,1.99896-5.77592,0-2.25047-.6524-4.10108-1.95508-5.5537-1.30371-1.45069-3.19922-2.17677-5.68652-2.17677h0Zm5.95312,37.14307h-11.90723v83.97124h11.90723V102.15379h0Z"/><path class="f" d="M547.52796,55.14748h-11.72955v53.75923c-1.06641-2.13231-2.59277-3.98338-4.57617-5.5537-1.98535-1.56885-4.69629-2.35446-8.13086-2.35446-5.09564,0-9.10834,2.25192-12.04004,6.75292-2.93262,4.50292-4.39838,10.9297-4.39838,19.28269v33.76562c0,7.82031,1.34662,14.18846,4.04291,19.10547,2.69427,4.91699,6.67773,7.375,11.95117,7.375,3.02148,0,5.59766-.62209,7.73041-1.86617,2.13287-1.24416,3.93951-2.93262,5.42096-5.06445l.08887-.26662v6.04199h11.64069V55.14748h0Zm-20.61536,122.00292c-2.84369,0-4.9472-1.3623-6.30951-4.08792-1.36328-2.72362-2.04395-6.60446-2.04395-11.64062v-34.03223c0-5.50877,.68066-9.58154,2.04395-12.21823,1.3623-2.63531,3.52435-3.95415,6.4873-3.95415,2.0127,0,3.77637,.60792,5.28705,1.8213,1.50983,1.21484,2.67877,3.06593,3.50983,5.5537v51.89407c-.71094,1.95407-1.85254,3.5537-3.4209,4.79785-1.57031,1.24416-3.42188,1.86623-5.55377,1.86623h0Z"/></g></g><g id="d"><polygon class="f" points="120 130.57318 10.57318 240 229.42682 240 120 130.57318"/><g><circle class="g" cx="119.99957" cy="120" r="107.5"/><path class="f" d="M120,25c52.38318,0,95,42.61682,95,95s-42.61682,95-95,95S25,172.38318,25,120,67.61682,25,120,25m0-25C53.72582,0,0,53.72581,0,120s53.72581,120,120,120,120-53.72581,120-120S186.27417,0,120,0h0Z"/></g><g id="e"><path class="f" d="M51.36111,120c13.70798,23.6871,39.30281,39.6351,68.63889,39.6351s54.93091-15.948,68.63889-39.6351c-13.70798-23.6871-39.30281-39.6351-68.63889-39.6351s-54.93091,15.948-68.63889,39.6351Z"/><circle class="g" cx="120" cy="120" r="26.15917"/></g><path class="g" d="M240,120C240,53.72583,186.27417,0,120,0S0,53.72583,0,120c0,35.82764,15.70673,67.98199,40.60345,89.96973l-30.03027,30.03027H229.42682l-30.03027-30.03027c24.89673-21.98773,40.60345-54.14209,40.60345-89.96973Zm-235,0c0-30.71765,11.9621-59.59662,33.68274-81.31732C60.40338,16.9621,89.28235,5,120,5s59.59662,11.9621,81.31732,33.68268c21.72058,21.7207,33.68268,50.59967,33.68268,81.31732s-11.9621,59.59662-33.68268,81.31726c-21.7207,21.72064-50.59967,33.68274-81.31732,33.68274s-59.59662-11.9621-81.31726-33.68274S5,150.71759,5,120Zm17.64429,115l21.78766-21.78766c12.03009,9.76495,25.98602,17.24554,41.21143,21.78766H22.64429Zm194.71143,0h-62.99908c15.2254-4.54211,29.18134-12.02271,41.21143-21.78766l21.78766,21.78766Z"/><path class="h" d="M195.56805,26.78766L26.78766,195.56805c5.25507,6.47412,11.17017,12.38922,17.64429,17.64429L213.21234,44.43195c-5.25507-6.47412-11.17017-12.38922-17.64429-17.64429Z"/></g></g></svg>